<svg xmlns="http://www.w3.org/2000/svg" viewBox="0 0 4280 930">
  <defs>
    <radialGradient id="EOS" cx="0.3" cy="0.3" r="0.8">
      <stop offset="0%" stop-color="#00C4FF" />
      <stop offset="100%" stop-color="#0584ED" />
    </radialGradient>
    <radialGradient id="ELY" cx="0.3" cy="0.3" r="1">
      <stop offset="0%" stop-color="#E2E18E" />
      <stop offset="100%" stop-color="#00EFA3" />
    </radialGradient>
    <linearGradient id="TRAIL" x1="0" x2="0" y1="0" y2="1">
      <stop offset="0%" stop-color="#FFAA79" />
      <stop offset="50%" stop-color="#FFAA79" stop-opacity="0.7"/>
      <stop offset="100%" stop-color="#FFAA79" stop-opacity="0"/>
    </linearGradient>
  </defs>
  <!-- LETTERS -->
  <path d="M 0 0 H 740 A 554 554 0 0 0 551 200 H 200 V 365 H 491 A 554 554 0 0 0 490 565 H 200 V 730 H 547 A 554 554 0 0 0 729 930 H 0 Z" fill="#02B0F9"/>
  <path d="M 1328 0 H 2092 V 200 H 1697 V 364 H 2092 V 930 H 1339 A 554 554 0 0 0 1521 730 H 1892 V 565 H 1578 A 554 554 0 0 0 1328 0" fill="#02B0F9"/>
  <path d="M 2188 0 H 3071 V 94 A 400 400 0 0 0 2922 200 H 2389 V 730 H 2868 L 2863 735 A 1 1 0 0 0 2944 831 L 2985 789 A 400 400 0 0 0 3071 836 V 930 H 2188 Z" fill="#FFFFFF"/>
  <path d="M 3370 0 H 4280 V 930 H 4079 V 200 H 3720 V 930 H 3370 V 836 A 400 400 0 0 0 3544 228 L 3568 205 A 1 1 0 0 0 3479 116 L 3455 140 A 400 400 0 0 0 3370 93 Z" fill="#FFFFFF"/>
  <!-- EOS -->
  <path d="M 1032 164 A 1 1 0 0 0 1032 764 A 1 1 0 0 0 1032 164" fill="url(#EOS)"/>
  <path d="M 1034 11 A 1 1 0 0 0 1034 919 V 843 A 1 1 0 0 1 1034 87 A 1 1 0 0 1 1034 843 V 919 A 1 1 0 0 0 1034 11 Z" fill="#00E3F7"/>
  <path d="M 815 373 V 555 L 943 683 H 1125 L 1253 555 V 374 L 1124 245 H 944 L 949 259 H 1119 L 1239 379 V 549 L 1119 669 H 949 L 829 549 V 379 L 949 259 L 944 245 Z" fill="#404040"/>
  <!-- SHIPS -->
  <path d="M 909 343 L 895 455 L 867 503 H 886 V 513 H 914 V 503 H 934 V 513 H 962 V 503 H 981 L 953 455 L 939 343 L 932 419 V 462 H 916 V 419 H 932 L 939 343 Z" fill="#FFFFFF"/>
  <path d="M 1019 219 L 1005 331 L 977 379 H 996 V 389 H 1024 V 379 H 1044 V 389 H 1072 V 379 H 1091 L 1063 331 L 1049 219 L 1042 295 V 338 H 1026 V 295 H 1042 L 1049 219 Z" fill="#FFFFFF"/>
  <path d="M 1129 343 L 1115 455 L 1087 503 H 1106 V 513 H 1134 V 503 H 1154 V 513 H 1182 V 503 H 1201 L 1173 455 L 1159 343 L 1152 419 V 462 H 1136 V 419 H 1152 L 1159 343 Z" fill="#FFFFFF"/>
  <path d="M 876 503 V 722 H 879 V 503 L 886 513 C 886 547 914 532 924 688 C 934 532 962 547 962 513 L 969 503 V 722 H 972 V 503 H 969 L 962 513 H 934 V 503 H 914 V 513 H 886 L 879 503 Z" fill="url(#TRAIL)"/>
  <path d="M 986 379 V 598 H 989 V 379 L 996 389 C 996 423 1024 408 1034 564 C 1044 408 1072 423 1072 389 L 1079 379 V 598 H 1082 V 379 H 1079 L 1072 389 H 1044 V 379 H 1024 V 389 H 996 L 989 379 Z" fill="url(#TRAIL)"/>
  <path d="M 1096 503 V 722 H 1099 V 503 L 1106 513 C 1106 547 1134 532 1144 688 C 1154 532 1182 547 1182 513 L 1189 503 V 722 H 1192 V 503 H 1189 L 1182 513 H 1154 V 503 H 1134 V 513 H 1106 L 1099 503 Z" fill="url(#TRAIL)"/>
  <!-- ELY -->
  <path d="M 3220 164 A 1 1 0 0 0 3220 764 A 1 1 0 0 0 3220 164" fill="url(#ELY)"/>
  <path d="M 3001 376 V 558 L 3129 686 H 3311 L 3439 558 V 377 L 3310 248 H 3130 L 3135 262 H 3305 L 3425 382 V 552 L 3305 672 H 3135 L 3015 552 V 382 L 3135 262 L 3130 248 Z" fill="#404040"/>
  <path d="M 2876 757 L 3498 135 A 1 1 0 0 1 3550 188 L 2929 809 A 1 1 0 0 1 2876 757" fill="#C4FFEC"/>
  <!-- FACE -->
  <path d="M 3259 551 A 1 1 0 0 0 3259 616 A 1 1 0 0 0 3259 551 L 3338 459 A 1 1 0 0 0 3339 523 A 1 1 0 0 0 3338 459" fill="#FFFFFF"/>
  <path d="M 3259 569 A 1 1 0 0 0 3259 598 A 1 1 0 0 0 3259 569 L 3338 477 A 1 1 0 0 0 3338 506 A 1 1 0 0 0 3338 477" fill="#000000"/>
  <path d="M 3311 567 A 1 1 0 0 0 3311 581 C 3341 584 3346 562 3343 546 A 1 1 0 0 0 3329 547 C 3331 557 3330 570 3311 567" fill="#000000"/>
</svg>